<?xml version="1.0" encoding="UTF-8"?>
<svg xmlns="http://www.w3.org/2000/svg" viewBox="0 0 400 300" role="img" aria-label="4L Trophy placeholder">
  <defs>
    <linearGradient id="bg4l" x1="0" y1="0" x2="1" y2="1">
      <stop offset="0%" stop-color="#1c1f29"/>
      <stop offset="100%" stop-color="#0b0c10"/>
    </linearGradient>
    <linearGradient id="dune" x1="0" y1="1" x2="0" y2="0">
      <stop offset="0%" stop-color="#fbbf24" stop-opacity="0.5"/>
      <stop offset="100%" stop-color="#f97316" stop-opacity="0.15"/>
    </linearGradient>
  </defs>
  <rect width="400" height="300" rx="20" fill="url(#bg4l)"/>
  <circle cx="320" cy="110" r="32" fill="#fbbf24" opacity="0.85"/>
  <path d="M 0 230 Q 100 200 200 220 Q 280 235 400 215 L 400 300 L 0 300 Z" fill="url(#dune)"/>
  <path d="M 0 250 Q 120 230 240 245 Q 320 255 400 240 L 400 300 L 0 300 Z" fill="#a78bfa" opacity="0.4"/>
  <!-- 4L silhouette -->
  <g transform="translate(140 200)">
    <rect x="0" y="20" width="120" height="22" rx="3" fill="#a78bfa"/>
    <path d="M 12 20 L 22 4 L 90 4 L 105 20 Z" fill="#a78bfa"/>
    <rect x="32" y="8" width="50" height="12" fill="#0b0c10" opacity="0.4"/>
    <circle cx="28" cy="42" r="9" fill="#0b0c10"/>
    <circle cx="92" cy="42" r="9" fill="#0b0c10"/>
    <circle cx="28" cy="42" r="4" fill="#a78bfa"/>
    <circle cx="92" cy="42" r="4" fill="#a78bfa"/>
  </g>
  <text x="200" y="285" text-anchor="middle" font-family="monospace" font-size="13" font-weight="700" fill="#a78bfa" letter-spacing="0.2em">4L TROPHY TODO</text>
</svg>
