<?xml version="1.0" encoding="UTF-8"?>
<svg xmlns="http://www.w3.org/2000/svg" viewBox="0 0 400 300" role="img" aria-label="Firefighter placeholder">
  <defs>
    <linearGradient id="bg3" x1="0" y1="0" x2="1" y2="1">
      <stop offset="0%" stop-color="#1c1f29"/>
      <stop offset="100%" stop-color="#0b0c10"/>
    </linearGradient>
    <linearGradient id="flame" x1="0" y1="1" x2="0" y2="0">
      <stop offset="0%" stop-color="#f97316"/>
      <stop offset="50%" stop-color="#fbbf24"/>
      <stop offset="100%" stop-color="#fde047" stop-opacity="0.4"/>
    </linearGradient>
  </defs>
  <rect width="400" height="300" rx="20" fill="url(#bg3)"/>
  <path d="M 200 80 Q 175 120 185 160 Q 195 140 200 150 Q 205 130 215 165 Q 230 140 225 175 Q 245 155 235 195 Q 225 215 200 215 Q 175 215 165 195 Q 155 155 175 175 Q 170 140 185 165 Q 195 130 200 150 Q 205 120 200 80 Z" fill="url(#flame)" opacity="0.9"/>
  <rect x="140" y="220" width="120" height="14" rx="2" fill="#a78bfa"/>
  <path d="M 130 230 L 270 230 L 260 250 L 140 250 Z" fill="#8b5cf6"/>
  <text x="200" y="285" text-anchor="middle" font-family="monospace" font-size="13" font-weight="700" fill="#a78bfa" letter-spacing="0.2em">FIREFIGHTER TODO</text>
</svg>
