<?xml version="1.0" encoding="UTF-8"?>
<svg xmlns="http://www.w3.org/2000/svg" viewBox="0 0 400 300" role="img" aria-label="Kids placeholder">
  <defs>
    <linearGradient id="bgK" x1="0" y1="0" x2="1" y2="1">
      <stop offset="0%" stop-color="#1c1f29"/>
      <stop offset="100%" stop-color="#0b0c10"/>
    </linearGradient>
  </defs>
  <rect width="400" height="300" rx="20" fill="url(#bgK)"/>
  <!-- Sun -->
  <circle cx="200" cy="90" r="34" fill="#fbbf24" opacity="0.9"/>
  <g stroke="#fbbf24" stroke-width="3" opacity="0.6" stroke-linecap="round">
    <line x1="200" y1="36" x2="200" y2="48"/>
    <line x1="200" y1="132" x2="200" y2="144"/>
    <line x1="146" y1="90" x2="158" y2="90"/>
    <line x1="242" y1="90" x2="254" y2="90"/>
    <line x1="162" y1="52" x2="170" y2="60"/>
    <line x1="230" y1="120" x2="238" y2="128"/>
    <line x1="238" y1="52" x2="230" y2="60"/>
    <line x1="170" y1="120" x2="162" y2="128"/>
  </g>
  <!-- Kids silhouettes -->
  <g fill="#a78bfa">
    <circle cx="120" cy="180" r="14"/>
    <path d="M 100 230 Q 100 200 120 200 Q 140 200 140 230 L 140 245 L 100 245 Z"/>
    <circle cx="200" cy="170" r="16"/>
    <path d="M 178 230 Q 178 196 200 196 Q 222 196 222 230 L 222 245 L 178 245 Z"/>
    <circle cx="280" cy="180" r="14"/>
    <path d="M 260 230 Q 260 200 280 200 Q 300 200 300 230 L 300 245 L 260 245 Z"/>
  </g>
  <text x="200" y="285" text-anchor="middle" font-family="monospace" font-size="13" font-weight="700" fill="#a78bfa" letter-spacing="0.2em">ENFANTS TODO</text>
</svg>
